<svg width="64" height="64" viewBox="0 0 64 64" fill="none" xmlns="http://www.w3.org/2000/svg">
<path d="M59.872 44.154C58.52 43.008 56.742 42.516 54.988 42.808L37.966 45.646C37.878 44.176 37.288 42.804 36.24 41.756C35.108 40.626 33.624 40.014 32.002 40.012C21.176 40.044 14.034 40.046 12.456 40.016C11.354 38.788 9.774 38 8 38H4C2.896 38 2 38.896 2 40V60C2 61.104 2.896 62 4 62H8C9.766 62 11.34 61.218 12.44 60H32C32.14 60 32.282 59.986 32.418 59.956L57.238 54.638C59.996 54.046 61.998 51.57 61.998 48.748C62 46.974 61.224 45.3 59.872 44.154ZM8 58H6V42H8C9.102 42 10 42.898 10 44V56C10 57.102 9.102 58 8 58ZM56.402 50.726L31.788 56H14V44.028C16.488 44.048 21.526 44.042 32.012 44.012H32.018C32.546 44.012 33.04 44.216 33.414 44.588C33.792 44.966 34 45.468 34 46.006C34 47.106 33.106 48 32.006 48H22C20.896 48 20 48.896 20 50C20 51.104 20.896 52 22 52H32.006C33.796 52 35.388 51.194 36.488 49.946L55.646 46.752C56.242 46.656 56.824 46.814 57.286 47.204C57.746 47.596 58 48.144 58 48.748C58 49.696 57.328 50.528 56.402 50.726ZM28 38H36C45.924 38 54 29.924 54 20C54 10.076 45.924 2 36 2H28C18.076 2 10 10.076 10 20C10 29.924 18.076 38 28 38ZM50 20C50 26.348 45.75 31.712 39.95 33.424C43.652 30.124 46 25.336 46 20C46 14.664 43.652 9.876 39.95 6.576C45.75 8.288 50 13.652 50 20ZM28 6C35.72 6 42 12.28 42 20C42 27.72 35.72 34 28 34C20.28 34 14 27.72 14 20C14 12.28 20.28 6 28 6Z" fill="#5243D2"/>
<path d="M27.3241 13.7143L28.9699 17.1633L32.7588 17.6628L29.9871 20.2938L30.6829 24.0515L27.3241 22.2286L23.9654 24.0515L24.6612 20.2938L21.8895 17.6628L25.6784 17.1633L27.3241 13.7143Z" stroke="#5243D2" stroke-width="2" stroke-linejoin="round"/>
</svg>
