<svg width="64" height="64" viewBox="0 0 64 64" fill="none" xmlns="http://www.w3.org/2000/svg">
<path d="M60 20C60 14.1333 55.2 9.33334 49.3333 9.33334C44.4 9.33334 40.2667 12.8 39.0667 17.3333H10.6667C6.93333 17.3333 4 20.2667 4 24V48C4 51.7333 6.93333 54.6667 10.6667 54.6667H48C51.7333 54.6667 54.6667 51.7333 54.6667 48V29.2C57.8667 27.3333 60 24 60 20ZM52 44H41.2C39.0667 44 37.3333 42.9333 37.3333 40.6667C37.3333 38.4 39.2 38 41.3333 38H52V44ZM52 35.3333H41.2C37.6 35.3333 34.6667 36.9333 34.6667 40.6667C34.6667 44.4 37.6 46.6667 41.2 46.6667H52V48C52 50.2667 50.2667 52 48 52H10.6667C8.4 52 6.66667 50.2667 6.66667 48V24C6.66667 21.7333 8.4 20 10.6667 20H38.6667C38.6667 25.8667 43.4667 30.6667 49.3333 30.6667C50.2667 30.6667 51.2 30.5333 52 30.2667V35.3333ZM49.3333 28C44.9333 28 41.3333 24.4 41.3333 20C41.3333 15.6 44.9333 12 49.3333 12C53.7333 12 57.3333 15.6 57.3333 20C57.3333 24.4 53.7333 28 49.3333 28Z" fill="#5243D2"/>
<path d="M41.3333 41.3334C42.0697 41.3334 42.6667 40.7364 42.6667 40C42.6667 39.2636 42.0697 38.6667 41.3333 38.6667C40.597 38.6667 40 39.2636 40 40C40 40.7364 40.597 41.3334 41.3333 41.3334Z" fill="#5243D2"/>
<path d="M45.3337 18.0067C45.3335 17.2382 45.5988 16.4933 46.0848 15.8981C46.5707 15.3028 47.2474 14.8937 48.0003 14.74V14.6733C48.0003 14.3197 48.1408 13.9806 48.3909 13.7305C48.6409 13.4805 48.98 13.34 49.3337 13.34C49.6873 13.34 50.0264 13.4805 50.2765 13.7305C50.5265 13.9806 50.667 14.3197 50.667 14.6733H51.3603C51.7139 14.6733 52.0531 14.8138 52.3031 15.0639C52.5532 15.3139 52.6937 15.6531 52.6937 16.0067C52.6937 16.3603 52.5532 16.6994 52.3031 16.9495C52.0531 17.1995 51.7139 17.34 51.3603 17.34H48.6937C48.5168 17.34 48.3473 17.4102 48.2223 17.5353C48.0972 17.6603 48.027 17.8299 48.027 18.0067C48.027 18.1835 48.0972 18.3531 48.2223 18.4781C48.3473 18.6031 48.5168 18.6733 48.6937 18.6733H50.027C50.911 18.5885 51.7926 18.8583 52.4777 19.4234C53.1629 19.9885 53.5955 20.8026 53.6803 21.6867C53.7652 22.5707 53.4954 23.4523 52.9303 24.1374C52.3652 24.8226 51.551 25.2551 50.667 25.34C50.667 25.6936 50.5265 26.0328 50.2765 26.2828C50.0264 26.5329 49.6873 26.6733 49.3337 26.6733C48.98 26.6733 48.6409 26.5329 48.3909 26.2828C48.1408 26.0328 48.0003 25.6936 48.0003 25.34H47.3337C46.98 25.34 46.6409 25.1995 46.3909 24.9495C46.1408 24.6994 46.0003 24.3603 46.0003 24.0067C46.0003 23.6531 46.1408 23.3139 46.3909 23.0639C46.6409 22.8138 46.98 22.6733 47.3337 22.6733H50.0003C50.1771 22.6733 50.3467 22.6031 50.4717 22.4781C50.5968 22.3531 50.667 22.1835 50.667 22.0067C50.667 21.8299 50.5968 21.6603 50.4717 21.5353C50.3467 21.4102 50.1771 21.34 50.0003 21.34H48.667C47.7829 21.34 46.9351 20.9888 46.31 20.3637C45.6848 19.7386 45.3337 18.8907 45.3337 18.0067ZM49.3337 28.0067C50.9159 28.0067 52.4626 27.5375 53.7782 26.6584C55.0938 25.7794 56.1192 24.53 56.7247 23.0681C57.3302 21.6063 57.4886 19.9978 57.1799 18.446C56.8713 16.8941 56.1093 15.4686 54.9905 14.3498C53.8717 13.231 52.4462 12.4691 50.8944 12.1604C49.3425 11.8517 47.734 12.0101 46.2722 12.6156C44.8104 13.2211 43.561 14.2465 42.6819 15.5621C41.8029 16.8777 41.3337 18.4244 41.3337 20.0067C41.3337 22.1284 42.1765 24.1632 43.6768 25.6635C45.1771 27.1638 47.2119 28.0067 49.3337 28.0067Z" fill="#5243D2"/>
</svg>
